<svg width="314" height="252" viewBox="0 0 314 252" fill="none" xmlns="http://www.w3.org/2000/svg">
<g clip-path="url(#clip0_97_1214)">
<path d="M230.463 54.8353C212.811 48.079 194.996 41.1616 177.298 34.3149C125.47 60.6683 75.8337 89.3093 28.6581 120.082L39.0833 171.441L99.9584 184.111L110.11 205.415C111.34 208.02 116.815 206.488 115.585 203.883C112.664 197.768 109.752 191.656 106.847 185.546L117.326 187.732L139.204 227.332C140.626 229.884 146.1 228.352 144.696 225.795C137.947 213.583 131.193 201.373 124.433 189.165L169.771 198.602L179.373 215.428C180.829 217.97 186.303 216.438 184.847 213.896C182.226 209.305 179.598 204.701 176.994 200.105L219.338 208.905C220.963 187.959 222.492 166.966 223.924 145.926C231.708 158.763 239.037 171.746 245.909 184.877C246.183 185.414 246.735 185.849 247.442 186.085C248.149 186.322 248.954 186.34 249.68 186.137C250.406 185.934 250.993 185.526 251.313 185.002C251.632 184.479 251.658 183.882 251.383 183.345C243.123 167.545 234.19 151.952 224.587 136.567C225.699 120.523 226.839 104.443 228.006 88.325L243.935 119.545C244.209 120.083 244.76 120.517 245.468 120.754C246.175 120.99 246.98 121.009 247.706 120.806C248.432 120.603 249.019 120.194 249.339 119.671C249.658 119.147 249.683 118.551 249.409 118.013L228.837 77.6941C229.304 70.0563 229.859 62.4378 230.463 54.8353Z" fill="#BFF747"/>
<path d="M236.194 125.266C235.472 125.472 234.888 125.881 234.569 126.403C234.25 126.926 234.222 127.521 234.491 128.058C236.49 131.039 238.499 134.026 240.518 137.021C240.792 137.558 241.344 137.993 242.051 138.229C242.758 138.465 243.563 138.484 244.289 138.281C245.015 138.078 245.603 137.669 245.922 137.146C246.241 136.622 246.267 136.026 245.993 135.489C243.987 132.495 241.964 129.507 239.965 126.526C239.679 125.996 239.127 125.568 238.423 125.333C237.72 125.098 236.921 125.074 236.194 125.266Z" fill="#BFF747"/>
<path d="M93.1553 193.699C92.4386 193.911 91.8606 194.321 91.543 194.841C91.2253 195.362 91.1928 195.954 91.452 196.492L96.0615 205.526C96.3357 206.063 96.887 206.498 97.5943 206.735C98.3015 206.971 99.1066 206.99 99.8325 206.786C100.558 206.583 101.146 206.175 101.465 205.651C101.785 205.128 101.81 204.532 101.536 203.994L96.9263 194.96C96.6441 194.427 96.0919 193.997 95.3873 193.761C94.6828 193.526 93.8818 193.504 93.1553 193.699Z" fill="#BFF747"/>
<path d="M37.3816 112.892C84.5572 82.1191 134.194 53.4781 186.021 27.1248C203.667 33.8681 221.488 40.7985 239.187 47.6451C235.215 98.9032 231.946 150.599 228.007 201.804L47.8243 164.246L37.3816 112.892Z" stroke="#FDFDE1" stroke-width="4" stroke-linecap="round" stroke-linejoin="round"/>
<path d="M239.071 48.9017C171.658 82.9851 108.039 121.009 48.8224 162.61" stroke="#FDFDE1" stroke-width="4" stroke-linecap="round" stroke-linejoin="round"/>
<path d="M100.782 127.466C138.286 155.651 180.463 180.204 226.306 200.539C210.894 161.859 192.808 123.912 169.811 87.3531" stroke="#FDFDE1" stroke-width="4" stroke-linecap="round" stroke-linejoin="round"/>
<path d="M101.697 128.36C96.4178 112.164 93.4117 95.6078 92.7262 78.9539" stroke="#FDFDE1" stroke-width="4" stroke-linecap="round" stroke-linejoin="round"/>
<path d="M118.082 64.2185C136.146 69.6417 153.388 76.4592 169.521 84.5581" stroke="#FDFDE1" stroke-width="4" stroke-linecap="round" stroke-linejoin="round"/>
<path d="M185.111 38.3823L203.649 46.7195" stroke="#FDFDE1" stroke-width="4" stroke-linecap="round" stroke-linejoin="round"/>
<path d="M121.935 125.971L160.193 150.973" stroke="#FDFDE1" stroke-width="4" stroke-linecap="round" stroke-linejoin="round"/>
</g>
<defs>
<clipPath id="clip0_97_1214">
<rect width="242.846" height="209.21" fill="white" transform="matrix(0.963006 -0.269478 0.454482 0.890756 -15 65.4417)"/>
</clipPath>
</defs>
</svg>
