<?xml version="1.0" encoding="utf-8"?>
<!-- Generator: Adobe Illustrator 25.4.1, SVG Export Plug-In . SVG Version: 6.00 Build 0)  -->
<svg version="1.1" id="Layer_1" xmlns="http://www.w3.org/2000/svg" xmlns:xlink="http://www.w3.org/1999/xlink" x="0px" y="0px"
	 viewBox="0 0 215.2 306.2" style="enable-background:new 0 0 215.2 306.2;" xml:space="preserve">
<style type="text/css">
	.st0{clip-path:url(#SVGID_00000089572470559737182620000013255911034740298658_);}
	.st1{fill:#BFF747;}
	.st2{fill:none;stroke:#FDFDE1;stroke-width:4;stroke-linecap:round;stroke-linejoin:round;}
</style>
<g>
	<defs>
		
			<rect id="SVGID_1_" x="-37.1" y="34.3" transform="matrix(0.4247 -0.9053 0.9053 0.4247 -65.5352 185.3038)" width="300.4" height="219.7"/>
	</defs>
	<clipPath id="SVGID_00000073697186813043819000000007771329806589806740_">
		<use xlink:href="#SVGID_1_"  style="overflow:visible;"/>
	</clipPath>
	<g style="clip-path:url(#SVGID_00000073697186813043819000000007771329806589806740_);">
		<path class="st1" d="M200,190.1c2.3-5.6,3.5-11.5,3.6-17.5c0.1-6.1-2.1-11.9-6-16.6c-2-2.3-4.5-4-7.4-5c-2.8-1-5.9-1.2-8.9-0.7
			c0.4-3.6,0-7.2-1.2-10.6s-3-6.6-5.4-9.2c-2.4-2.5-5.4-4.4-8.7-5.6c-3.3-1.2-6.8-1.7-10.2-1.4c8.6-8.2,16.2-17.6,22.4-27.8
			c5.9-9,9.8-19.1,11.5-29.7c1.3-10.6-0.9-22-7.6-30.2c-6.8-8.3-18.5-12.8-28.6-9.5c-8.3,2.7-14.3,9.7-19.3,16.8
			c-8.9,12.7-15.9,26.6-20.8,41.3c-1-8.7-2.2-16.2-3.2-24.9c-1.4-12.2-2.8-24.8-8.7-35.5S83.9,4.6,71.7,5.9c-3.9,0.6-7.7,1.9-11,4
			c-3.4,2.1-6.3,4.8-8.6,8c-4.6,6.4-7.9,13.7-9.5,21.5c-4,17.3-4.8,35.1-2.5,52.6c2,17.5,9,38.2,13.2,55.3
			c-16.6-1.8-29.1,9.5-34.5,19.6c-5.2,10.3-6.8,22-4.4,33.3c2.5,11.2,7.5,21.6,14.8,30.5c8.2,10.9,18.6,20,30.5,26.7
			c26,13.9,62,13.7,87.5-1.6c7.5-4.5,10.6-13.7,14.6-21.5C179.1,224.4,192.7,208.8,200,190.1z"/>
		<path class="st1" d="M84.7,252.4l-15.7,33.6c-0.4,0.8-0.4,1.7-0.1,2.5c0.3,0.8,0.9,1.5,1.7,1.8c0.8,0.4,1.7,0.4,2.5,0.1
			c0.8-0.3,1.5-0.9,1.8-1.7l15.7-33.6c0.4-0.8,0.4-1.7,0.1-2.5s-0.9-1.5-1.7-1.8c-0.8-0.4-1.7-0.4-2.5-0.1S85.1,251.6,84.7,252.4z"
			/>
		<path class="st1" d="M19.9,197.3L0.4,235.6c-1.9,3.7,4,6.5,5.9,2.8L25.8,200C27.7,196.3,21.8,193.5,19.9,197.3z"/>
		<path class="st1" d="M20.1,242.8c-0.8-0.4-1.7-0.4-2.5-0.1c-0.8,0.3-1.5,0.9-1.8,1.7l-4.1,8.8c-0.4,0.8-0.4,1.7-0.1,2.5
			c0.3,0.8,0.9,1.5,1.7,1.8c0.8,0.3,1.7,0.4,2.5,0.1c0.8-0.3,1.5-0.9,1.8-1.7l4.1-8.8c0.4-0.8,0.4-1.7,0.1-2.5
			S20.9,243.2,20.1,242.8z"/>
		<path class="st1" d="M105.2,253.4c-0.8-0.3-1.7-0.4-2.5-0.1c-0.8,0.3-1.5,0.9-1.8,1.7c-3.2,6.7-6.3,13.5-9.6,20.1
			c-0.4,0.8-0.4,1.7-0.1,2.5c0.3,0.8,0.9,1.5,1.7,1.8c0.8,0.4,1.7,0.4,2.5,0.1c0.8-0.3,1.5-0.9,1.8-1.7c3.2-6.7,6.3-13.5,9.6-20.1
			c0.3-0.8,0.4-1.7,0.1-2.5C106.5,254.4,105.9,253.7,105.2,253.4z"/>
		<path class="st1" d="M141.8,243.6l-27.3,58.2c-0.3,0.8-0.3,1.6,0,2.4c0.3,0.8,0.9,1.4,1.6,1.7c0.7,0.3,1.6,0.4,2.4,0.2
			c0.8-0.2,1.4-0.8,1.8-1.5c9.1-19.4,18.2-38.8,27.3-58.2c0.3-0.8,0.3-1.6,0-2.4c-0.3-0.8-0.9-1.4-1.6-1.7c-0.7-0.3-1.6-0.4-2.4-0.2
			C142.9,242.4,142.2,242.9,141.8,243.6z"/>
		<path class="st1" d="M49.9,81.4c1.5-3.9-4.4-6.7-5.9-2.8c-4.4,11.4-8.9,22.9-13.3,34.3c-1.5,3.9,4.4,6.7,5.9,2.8
			C41.1,104.2,45.5,92.8,49.9,81.4z"/>
		<path class="st1" d="M32.2,126.8c0.3-0.8,0.3-1.6,0.1-2.4c-0.1-0.4-0.4-0.8-0.7-1.1c-0.3-0.3-0.6-0.6-1-0.8
			c-0.4-0.2-0.8-0.3-1.2-0.3c-0.4,0-0.9,0-1.3,0.2c-0.8,0.3-1.4,0.9-1.8,1.6c-0.9,2.7-1.7,5.3-2.6,8c-0.3,0.8-0.3,1.6-0.1,2.4
			c0.3,0.8,0.9,1.4,1.6,1.8c0.8,0.3,1.6,0.4,2.4,0.1c0.8-0.3,1.4-0.9,1.8-1.6C30.5,132.1,31.4,129.5,32.2,126.8z"/>
		<path class="st2" d="M209.6,186.2c2.3-5.6,3.5-11.5,3.6-17.5c0.1-6.1-2.1-12-6-16.6c-2-2.3-4.5-4-7.4-5c-2.8-1-5.9-1.2-8.9-0.7
			c0.4-3.6,0-7.2-1.1-10.6c-1.1-3.4-3-6.6-5.4-9.2c-2.5-2.5-5.4-4.4-8.7-5.6c-3.3-1.2-6.8-1.7-10.3-1.4c8.6-8.2,16.1-17.5,22.3-27.7
			c5.9-9,9.8-19.1,11.5-29.7c1.4-10.6-0.9-22-7.6-30.2c-6.8-8.3-18.5-12.8-28.6-9.5c-8.3,2.7-14.3,9.7-19.3,16.8
			C134.7,52,127.7,66,122.9,80.7c-1-8.7-2.2-16.2-3.3-24.9c-1.4-12.2-2.8-24.8-8.7-35.5C105,9.4,93.4,0.8,81.2,2.1
			c-3.9,0.6-7.7,1.9-11,4c-3.4,2-6.3,4.8-8.6,8c-4.6,6.4-7.8,13.7-9.5,21.5c-4,17.3-4.9,35.1-2.5,52.6c2,17.5,9,38.2,13.2,55.3
			c-16.6-1.8-29.1,9.5-34.5,19.6c-5.2,10.2-6.7,21.9-4.2,33.1c2.5,11.2,7.5,21.7,14.8,30.5c7.3,8.8,15.6,16.7,24.8,23.4
			c13,9.9,29.6,11.3,45.9,12.3c16.5,1.3,32.9-2.4,47.2-10.7c7.4-4.5,10.6-13.7,14.6-21.5C188.7,220.5,202.3,204.9,209.6,186.2
			L209.6,186.2z"/>
		<path class="st2" d="M55.1,143.7c17.3-1.4,34.5,4,47.8,15.2c3.5,2.6,6.2,6.3,7.7,10.4c0.6,2.6,0.6,5.3-0.1,7.9
			c-0.7,2.6-2,5-3.9,6.9c-3.8,3.9-8.6,6.5-13.9,7.6c-5.2,1.1-10.6,1.7-15.9,1.7"/>
		<path class="st2" d="M191,141.4c-0.7,19.4-8.6,33.5-20.3,46.8c-3.5,4.4-8.1,7.8-13.3,9.8c-3.4,0.9-6.9,1.1-10.3,0.3
			c-3.4-0.7-6.6-2.3-9.2-4.6c-5.3-4.6-8.5-11.2-8.9-18.2c-0.4-7,1.3-13.9,4.8-19.9"/>
		<path class="st2" d="M163.8,196.5c-0.9,3.3-0.8,6.8,0.4,10.1c1.1,3.2,3.2,6.1,6,8.1c2.8,2,6.1,3.2,9.6,3.5c3.4,0.3,6.9-0.4,10-1.9
			"/>
		<path class="st2" d="M121.2,64c2.3,15.8,2.6,31.8,0.9,47.6"/>
	</g>
</g>
</svg>
