<svg width="250" height="263" viewBox="0 0 250 263" fill="none" xmlns="http://www.w3.org/2000/svg">
<g clip-path="url(#clip0_94_1137)">
<path d="M158.565 88.7392L138.685 9.30298L79.6795 64.5376L0 59.4082L8.12459 77.8508C7.55723 79.9959 6.92182 82.1409 6.17291 84.2393L5.42396 86.2911L5.01548 87.317C4.96807 87.4058 4.93005 87.4996 4.90204 87.5968C4.28929 88.9724 3.69923 90.3713 3.04109 91.7236C2.74049 92.1839 2.53484 92.7025 2.43689 93.2476C2.33894 93.7926 2.35071 94.3525 2.47152 94.8927C2.59233 95.4328 2.8196 95.9419 3.1393 96.3883C3.459 96.8347 3.86439 97.2091 4.33039 97.4884C4.79638 97.7677 5.31316 97.9459 5.84879 98.0121C6.38441 98.0782 6.92747 98.0309 7.44462 97.8731C7.96176 97.7152 8.44195 97.4502 8.85553 97.0943C9.26911 96.7384 9.60739 96.2992 9.84937 95.8038C10.9841 93.4723 11.9826 91.1407 12.913 88.646L21.8546 108.954C17.9486 124.044 13.0506 138.845 7.19418 153.253C6.91534 154.289 7.0478 155.396 7.56263 156.332C8.07746 157.267 8.93249 157.955 9.9401 158.243C10.9474 158.505 12.0141 158.358 12.9186 157.832C13.823 157.307 14.4957 156.444 14.7967 155.422C19.425 143.991 23.4627 132.317 26.8928 120.448L32.9294 134.158L3.42686 210.423L26.4162 207.789L22.5354 228.26C22.2931 229.297 22.4447 230.391 22.959 231.317C23.4733 232.244 24.3118 232.935 25.3042 233.249C26.315 233.522 27.3895 233.377 28.2975 232.845C29.2054 232.314 29.8744 231.438 30.1608 230.405C31.6737 222.54 33.1867 214.69 34.6996 206.856L73.2799 202.473C71.9333 212.343 70.6019 222.221 69.2857 232.107C69.0367 233.142 69.1824 234.235 69.693 235.163C70.2036 236.09 71.0403 236.782 72.0316 237.096C73.0424 237.369 74.1171 237.224 75.025 236.693C75.933 236.161 76.6018 235.285 76.8882 234.252C78.4011 223.371 79.8687 212.491 81.2909 201.61L83.0384 201.424L94.2039 210.913L91.6849 230.125C91.6908 231.199 92.1087 232.227 92.848 232.987C93.5872 233.746 94.5882 234.176 95.6337 234.182C96.6719 234.153 97.6598 233.716 98.3943 232.961C99.1287 232.207 99.5538 231.192 99.5824 230.125C100.15 225.742 100.717 221.335 101.307 216.952L144.426 253.627L160.539 173.235L184.504 157.614C181.554 174.712 178.589 191.887 175.608 209.141C174.723 214.224 182.417 216.415 183.211 211.286C186.66 191.452 190.095 171.603 193.514 151.738L227.941 129.285L158.565 88.7392Z" fill="#BFF747"/>
<path d="M71.4415 242.739C70.4119 242.582 69.3633 242.842 68.5167 243.464C67.67 244.086 67.0914 245.021 66.9027 246.073C66.1992 250.13 65.5182 254.21 64.8147 258.29C64.6502 259.35 64.8986 260.433 65.506 261.306C66.1134 262.179 67.0309 262.771 68.06 262.953C69.0887 263.104 70.1344 262.842 70.9797 262.221C71.825 261.6 72.4049 260.668 72.5988 259.619C73.3023 255.539 73.9833 251.459 74.6868 247.402C74.8512 246.342 74.6029 245.259 73.9955 244.386C73.3881 243.513 72.4706 242.922 71.4415 242.739Z" fill="#BFF747"/>
<path d="M100.399 196.714L21.0603 205.76L50.4267 129.495L17.52 54.7683L97.1996 59.8978L156.227 4.66309L176.085 84.0993L245.461 124.692L178.082 168.665L161.924 248.987L100.399 196.714Z" stroke="#FDFDE1" stroke-width="4" stroke-linecap="round" stroke-linejoin="round"/>
<path d="M17.52 54.7683L121.959 121.404L156.227 4.66309" stroke="#FDFDE1" stroke-width="4" stroke-linecap="round" stroke-linejoin="round"/>
<path d="M245.461 124.692L121.959 121.404L161.924 248.987" stroke="#FDFDE1" stroke-width="4" stroke-linecap="round" stroke-linejoin="round"/>
<path d="M21.0603 205.76L121.959 121.404" stroke="#FDFDE1" stroke-width="4" stroke-linecap="round" stroke-linejoin="round"/>
</g>
<defs>
<clipPath id="clip0_94_1137">
<rect width="250" height="263" fill="white"/>
</clipPath>
</defs>
</svg>
