<?xml version="1.0" encoding="utf-8"?>
<!-- Generator: Adobe Illustrator 25.4.1, SVG Export Plug-In . SVG Version: 6.00 Build 0)  -->
<svg version="1.1" id="Layer_1" xmlns="http://www.w3.org/2000/svg" xmlns:xlink="http://www.w3.org/1999/xlink" x="0px" y="0px"
	 viewBox="0 0 393.5 500.3" style="enable-background:new 0 0 393.5 500.3;" xml:space="preserve">
<style type="text/css">
	.st0{clip-path:url(#SVGID_00000019636930085241752830000005457623650828055957_);}
	.st1{fill:none;stroke:#BFF747;stroke-width:4;stroke-linecap:round;stroke-linejoin:round;}
</style>
<g>
	<defs>
		
			<rect id="SVGID_1_" x="18.2" y="-18.8" transform="matrix(0.9899 -0.1416 0.1416 0.9899 -32.0741 31.9576)" width="380.7" height="520.3"/>
	</defs>
	<clipPath id="SVGID_00000083085243820643342860000016494226641937344181_">
		<use xlink:href="#SVGID_1_"  style="overflow:visible;"/>
	</clipPath>
	<g style="clip-path:url(#SVGID_00000083085243820643342860000016494226641937344181_);">
		<path d="M378.1,225.2c-2-10.2-5.8-20-11.4-28.8c-5.7-8.8-14.3-15.4-24.4-18.3c-5-1.4-10.3-1.5-15.4-0.2c-5.1,1.3-9.7,3.8-13.5,7.4
			c-2.9-5.6-6.9-10.4-11.8-14.3c-4.9-3.9-10.6-6.7-16.6-8.2c-5.9-1.3-12-1.2-17.9,0.1c-5.9,1.4-11.4,4-16.2,7.7
			c4.7-20.1,6.7-40.8,6-61.5c0-18.6-3.9-37-11.6-53.9c-8.1-16.6-22.2-31-39.8-36.5c-17.6-5.5-38.9-0.9-50.5,13.5
			c-9.4,11.7-11.5,27.6-12,42.6c-0.9,26.9,2.2,53.7,9.2,79.6c-9.7-11.7-18.5-21.3-28.4-33c-13.6-16.4-27.6-33.2-46.5-43.2
			c-18.8-10-43.7-11.5-60.1,2C12.1,84.9,8,90.5,5,96.6c-2.9,6.2-4.6,12.9-4.9,19.7c-0.6,13.7,1.7,27.4,6.6,40.2
			C17.3,185.3,33,212,53,235.2c19.5,23.5,49.3,46.8,71.6,67.6C99,316,91.6,344.2,93.2,363.9c2.2,19.8,11.1,38.3,25.3,52.4
			c14.2,13.9,31.5,24.2,50.4,30.1c22.3,8,45.9,11.3,69.5,9.8c50.9-4.6,102.9-39.1,125.2-85.6c6.5-13.6,2.3-29.9,0.7-45
			C380.4,294.8,385.3,259.3,378.1,225.2L378.1,225.2z"/>
		<path d="M270.3,425l9.1,63.6c0.2,1.5,1,2.8,2.2,3.7c1.2,0.9,2.7,1.3,4.2,1.1c1.5-0.2,2.8-1,3.7-2.2c0.9-1.2,1.3-2.7,1.1-4.2
			l-9.1-63.6c-0.2-1.5-1-2.8-2.2-3.7c-1.2-0.9-2.7-1.3-4.2-1.1c-1.5,0.2-2.8,1-3.7,2.2C270.5,422,270.1,423.6,270.3,425z"/>
		<path d="M124.1,406.8l8.2,74.1c0.8,7.2,11.9,5.6,11.1-1.6l-8.2-74.1C134.4,397.9,123.3,399.5,124.1,406.8z"/>
		<path d="M167.7,472.5c-1.5,0.2-2.8,1-3.7,2.2c-0.9,1.2-1.3,2.7-1.1,4.1l2.4,16.6c0.2,1.5,1,2.8,2.2,3.7c1.2,0.9,2.7,1.3,4.1,1.1
			c1.5-0.2,2.8-1,3.7-2.2c0.9-1.2,1.3-2.7,1.1-4.2l-2.4-16.6c-0.2-1.5-1-2.8-2.2-3.7C170.7,472.7,169.2,472.3,167.7,472.5z"/>
		<path d="M300.9,407c-1.5,0.2-2.8,1-3.7,2.2c-0.9,1.2-1.3,2.7-1.1,4.2c1.8,12.8,3.6,25.5,5.2,38.3c0.2,1.5,1,2.8,2.2,3.7
			c1.2,0.9,2.7,1.3,4.2,1.1c1.5-0.2,2.8-1,3.7-2.2c0.9-1.2,1.3-2.7,1.1-4.2c-1.8-12.8-3.6-25.5-5.2-38.3c-0.2-1.5-1-2.8-2.2-3.7
			C303.9,407.2,302.4,406.8,300.9,407z"/>
		<path d="M344.7,358l15.8,110.2c0.3,1.4,1.1,2.6,2.3,3.4c1.2,0.8,2.6,1.1,4,0.9s2.7-0.9,3.6-2c0.9-1.1,1.3-2.5,1.3-3.9
			c-5.2-36.7-10.5-73.4-15.8-110.2c-0.3-1.4-1.1-2.6-2.3-3.4c-1.2-0.8-2.6-1.1-4-0.9c-1.4,0.2-2.7,0.9-3.6,2
			C345.1,355.2,344.7,356.6,344.7,358z"/>
		<path d="M57.4,210.4c-1.5-7-12.7-5.5-11.1,1.6c4.4,20.8,8.9,41.5,13.4,62.3c1.5,7,12.6,5.5,11.1-1.6
			C66.3,251.9,61.8,231.1,57.4,210.4z"/>
		<path d="M75,293c-0.3-1.4-1.1-2.7-2.2-3.6c-0.6-0.4-1.3-0.8-2-1c-0.7-0.2-1.5-0.2-2.2-0.1c-0.7,0.1-1.4,0.4-2.1,0.7
			c-0.6,0.4-1.2,0.9-1.6,1.5c-0.9,1.2-1.3,2.6-1.1,4c1.3,4.7,2.6,9.3,3.8,14c0.3,1.4,1.1,2.7,2.2,3.6c1.2,0.9,2.6,1.3,4,1.1
			c1.4-0.3,2.7-1,3.6-2.2c0.9-1.1,1.3-2.6,1.1-4C77.5,302.4,76.4,297.7,75,293z"/>
		<path class="st1" d="M388.3,210.5c-2-10.2-5.9-20-11.4-28.8c-5.7-8.8-14.4-15.4-24.4-18.3c-5-1.4-10.3-1.5-15.4-0.2
			c-5.1,1.3-9.7,3.8-13.5,7.4c-2.9-5.6-6.9-10.4-11.8-14.3c-4.9-3.9-10.6-6.7-16.6-8.2c-5.9-1.3-12-1.2-17.9,0.1
			c-5.9,1.4-11.4,4-16.2,7.7c4.7-20.1,6.7-40.7,6-61.3c0-18.6-3.9-37-11.6-53.9c-8.1-16.6-22.1-31-39.8-36.5
			c-17.6-5.5-38.9-0.9-50.5,13.5c-9.4,11.7-11.5,27.6-12,42.6c-0.9,26.9,2.2,53.7,9.2,79.6c-9.7-11.7-18.5-21.3-28.4-33
			c-13.6-16.4-27.6-33.2-46.4-43.2s-43.7-11.5-60.1,2c-5.1,4.6-9.3,10.1-12.2,16.3c-2.9,6.2-4.6,12.9-5,19.7
			c-0.5,13.7,1.7,27.4,6.6,40.1c10.6,28.8,26.3,55.4,46.3,78.7c19.5,23.5,49.3,46.8,71.6,67.6c-25.7,13.2-33.1,41.4-31.4,61.1
			c2.2,19.7,11.2,38.1,25.4,52c14.2,13.9,31.5,24.2,50.4,30.2c18.9,5.9,38.4,9.3,58.2,10.3c28.3,2,53.5-11.8,78.2-25.8
			c25.1-13.8,45.4-34.8,58.3-60.3c6.5-13.6,2.2-29.9,0.7-45C390.6,280,395.5,244.5,388.3,210.5L388.3,210.5z"/>
		<path class="st1" d="M124.1,295.8c23.7-18.6,53.8-27,83.8-23.4c7.6,0.5,14.9,3.2,21,7.8c3.3,3.2,5.9,7.2,7.3,11.6
			c1.4,4.4,1.8,9.1,1,13.7c-1.8,9.2-6.3,17.6-12.9,24.2c-6.5,6.6-13.7,12.4-21.4,17.6"/>
		<path class="st1" d="M318.8,163.2c17.4,28.8,19.3,56.6,15.1,87c-0.8,9.7-4.3,19-9.9,26.9c-4,4.6-9,8.1-14.6,10.2
			c-5.6,2.2-11.7,2.9-17.7,2.1c-12-1.7-22.9-8.1-30.2-17.9c-7.2-9.7-11.4-21.4-12-33.4"/>
		<path class="st1" d="M331.8,268.9c1.8,5.7,5.4,10.7,10.1,14.3c4.7,3.6,10.5,5.7,16.4,6c6,0.2,11.9-1.2,17.2-4
			c5.3-2.9,9.7-7.1,12.7-12.2"/>
		<path class="st1" d="M144.2,117.4c18.3,20.7,33.9,43.6,46.6,68.1"/>
	</g>
</g>
</svg>
