<svg id="svg" version="1.1" xmlns="http://www.w3.org/2000/svg" xmlns:xlink="http://www.w3.org/1999/xlink" width="400" height="100" viewBox="0, 0, 400,100"><g id="svgg"><path id="path0" d="M42.361 16.782 C 42.147 16.825,41.809 17.001,41.611 17.173 C 41.412 17.346,41.119 17.583,40.959 17.702 C 40.097 18.339,40.127 46.011,40.990 46.667 C 41.051 46.712,41.277 48.250,41.493 50.083 C 41.710 51.917,41.939 53.454,42.002 53.500 C 42.066 53.546,42.293 55.046,42.507 56.833 C 42.720 58.621,42.947 60.121,43.010 60.167 C 43.073 60.212,43.298 61.675,43.510 63.417 C 43.723 65.158,43.946 66.621,44.007 66.667 C 44.067 66.712,44.291 68.175,44.503 69.917 C 44.716 71.658,44.939 73.121,44.999 73.167 C 45.060 73.212,45.282 74.675,45.493 76.417 C 45.704 78.158,45.927 79.621,45.987 79.667 C 46.091 79.745,46.617 83.523,46.795 85.458 C 46.839 85.940,46.931 86.333,46.999 86.333 C 47.068 86.333,47.172 86.633,47.231 87.000 C 47.381 87.938,47.803 89.123,48.135 89.539 C 48.800 90.371,49.522 90.981,50.200 91.284 C 52.240 92.195,65.667 91.938,65.667 90.987 C 65.667 90.903,65.769 90.833,65.895 90.833 C 66.210 90.833,67.667 89.176,67.667 88.817 C 67.667 88.656,67.769 88.422,67.893 88.297 C 68.146 88.044,68.375 86.818,68.681 84.083 C 68.794 83.075,68.938 82.212,69.001 82.167 C 69.065 82.121,69.291 80.583,69.503 78.750 C 69.716 76.917,69.937 75.379,69.995 75.333 C 70.053 75.287,70.231 74.139,70.392 72.782 C 70.725 69.975,70.761 69.833,71.158 69.833 C 71.544 69.833,71.833 70.515,71.833 71.425 C 71.833 71.833,71.895 72.167,71.970 72.167 C 72.046 72.167,72.284 73.948,72.500 76.125 C 72.716 78.302,72.941 80.121,72.999 80.167 C 73.058 80.212,73.272 81.825,73.475 83.750 C 73.679 85.675,73.917 87.275,74.006 87.306 C 74.094 87.336,74.167 87.495,74.167 87.660 C 74.167 88.115,74.648 89.395,74.890 89.583 C 75.008 89.675,75.152 89.877,75.210 90.033 C 75.268 90.189,75.560 90.442,75.858 90.596 C 76.156 90.750,76.492 90.968,76.603 91.079 C 77.619 92.095,91.117 92.057,92.501 91.035 C 93.820 90.062,94.833 88.497,94.833 87.435 C 94.833 87.303,94.904 87.169,94.989 87.139 C 95.075 87.108,95.311 85.771,95.513 84.167 C 95.716 82.563,95.931 81.212,95.991 81.167 C 96.052 81.121,96.279 79.621,96.497 77.833 C 96.714 76.046,96.941 74.546,97.000 74.500 C 97.059 74.454,97.286 72.954,97.503 71.167 C 97.721 69.379,97.949 67.879,98.010 67.833 C 98.071 67.787,98.293 66.325,98.503 64.583 C 98.714 62.842,98.938 61.379,99.003 61.333 C 99.067 61.288,99.295 59.788,99.510 58.000 C 99.725 56.212,99.951 54.712,100.012 54.667 C 100.073 54.621,100.296 53.158,100.507 51.417 C 100.718 49.675,100.942 48.212,101.004 48.167 C 101.440 47.845,101.708 42.222,101.789 31.652 C 101.881 19.723,101.807 18.161,101.126 17.616 C 100.919 17.451,100.600 17.188,100.417 17.033 C 99.982 16.664,89.497 16.594,89.375 16.958 C 89.337 17.073,89.212 17.167,89.098 17.167 C 88.809 17.167,88.167 17.883,88.167 18.205 C 88.167 18.352,88.073 18.503,87.958 18.542 C 87.795 18.596,87.729 21.560,87.652 32.264 C 87.561 45.029,87.360 50.902,87.005 51.167 C 86.943 51.212,86.716 53.575,86.500 56.417 C 86.284 59.258,86.057 61.621,85.997 61.667 C 85.936 61.712,85.716 64.000,85.507 66.750 C 85.299 69.500,85.062 71.775,84.981 71.806 C 84.900 71.836,84.833 71.969,84.833 72.101 C 84.833 72.634,83.061 72.836,82.753 72.338 C 82.702 72.256,82.536 71.303,82.384 70.219 C 82.232 69.136,82.060 68.212,82.001 68.167 C 81.942 68.121,81.716 66.696,81.500 65.000 C 81.284 63.304,81.058 61.879,81.000 61.833 C 80.880 61.741,80.166 56.847,80.166 56.125 C 80.167 55.873,80.105 55.667,80.029 55.667 C 79.954 55.667,79.717 54.335,79.502 52.708 C 79.288 51.081,79.061 49.712,78.998 49.667 C 78.448 49.269,78.267 45.209,78.209 32.042 C 78.178 24.777,78.089 18.833,78.013 18.833 C 77.937 18.833,77.827 18.595,77.769 18.303 C 77.652 17.718,77.232 17.167,76.905 17.167 C 76.789 17.167,76.663 17.073,76.625 16.958 C 76.535 16.689,65.723 16.652,65.536 16.921 C 65.470 17.014,65.221 17.216,64.981 17.368 C 64.187 17.872,64.167 18.232,64.167 31.657 C 64.167 39.886,64.110 44.167,64.000 44.167 C 63.908 44.167,63.833 44.410,63.833 44.708 C 63.834 45.530,63.134 50.738,63.011 50.833 C 62.898 50.920,62.155 56.138,62.162 56.792 C 62.165 56.998,62.106 57.167,62.031 57.167 C 61.957 57.167,61.717 58.498,61.499 60.125 C 61.281 61.752,61.053 63.121,60.993 63.167 C 60.933 63.212,60.711 64.600,60.500 66.250 C 60.289 67.900,60.065 69.287,60.003 69.333 C 59.941 69.379,59.802 70.051,59.694 70.826 C 59.470 72.440,59.434 72.497,58.562 72.609 C 57.587 72.734,57.290 72.424,57.201 71.189 C 57.160 70.627,57.061 70.167,56.980 70.167 C 56.899 70.167,56.835 69.923,56.837 69.625 C 56.844 68.537,56.099 59.581,55.995 59.500 C 55.936 59.454,55.713 57.129,55.500 54.333 C 55.287 51.538,55.063 49.212,55.003 49.167 C 54.683 48.923,54.496 42.557,54.495 31.833 C 54.493 18.079,54.408 17.209,53.056 17.172 C 52.949 17.169,52.830 17.073,52.792 16.958 C 52.723 16.750,43.305 16.591,42.361 16.782 M110.019 16.785 C 109.800 16.828,109.538 16.929,109.436 17.010 C 108.326 17.895,108.317 17.907,108.218 18.875 C 108.164 19.402,108.056 19.833,107.977 19.833 C 107.897 19.833,107.833 35.149,107.833 54.250 C 107.833 77.083,107.889 88.667,108.000 88.667 C 108.092 88.667,108.167 88.974,108.167 89.350 C 108.167 90.264,108.597 91.118,109.231 91.466 C 109.878 91.820,137.659 91.997,139.296 91.657 C 140.251 91.459,140.831 90.849,140.833 90.042 C 140.833 89.835,140.908 89.667,141.000 89.667 C 141.107 89.667,141.167 87.917,141.167 84.750 C 141.167 82.046,141.101 79.833,141.021 79.833 C 140.941 79.833,140.827 79.595,140.769 79.303 C 140.652 78.718,140.232 78.167,139.905 78.167 C 139.789 78.167,139.663 78.073,139.625 77.958 C 139.571 77.797,137.664 77.731,131.137 77.667 C 124.339 77.599,122.664 77.539,122.442 77.355 C 122.042 77.022,122.029 60.613,122.429 60.083 C 122.673 59.761,122.926 59.747,130.465 59.667 C 140.715 59.557,139.725 60.228,139.805 53.333 C 139.902 44.837,140.734 45.510,130.125 45.504 C 123.058 45.500,122.823 45.490,122.500 45.167 C 122.178 44.844,122.167 44.611,122.167 38.197 L 122.167 31.560 122.585 31.197 C 123.001 30.835,123.028 30.833,130.743 30.833 C 140.289 30.833,140.830 30.737,140.833 29.042 C 140.833 28.835,140.908 28.667,141.000 28.667 C 141.107 28.667,141.167 26.917,141.167 23.750 C 141.167 21.046,141.101 18.833,141.021 18.833 C 140.941 18.833,140.827 18.595,140.769 18.303 C 140.652 17.718,140.232 17.167,139.905 17.167 C 139.789 17.167,139.663 17.073,139.625 16.958 C 139.557 16.753,111.041 16.586,110.019 16.785 M149.195 16.780 C 148.981 16.824,148.681 16.963,148.528 17.088 C 148.375 17.213,148.081 17.451,147.874 17.616 C 147.160 18.187,147.150 18.769,147.201 55.250 C 147.256 93.919,147.150 90.682,148.378 91.424 C 149.717 92.234,173.521 91.844,174.167 91.002 C 174.213 90.942,174.981 90.719,175.875 90.506 C 176.769 90.293,177.500 90.061,177.500 89.991 C 177.500 89.922,177.922 89.732,178.438 89.569 C 178.953 89.407,179.497 89.157,179.646 89.012 C 179.795 88.868,180.217 88.600,180.583 88.417 C 180.950 88.233,181.387 87.915,181.554 87.708 C 181.721 87.502,181.927 87.333,182.012 87.333 C 182.229 87.333,183.500 86.077,183.500 85.862 C 183.500 85.765,183.631 85.587,183.792 85.466 C 183.952 85.345,184.177 85.078,184.292 84.873 C 184.826 83.917,184.928 83.750,185.097 83.564 C 185.196 83.455,185.414 82.927,185.581 82.391 C 185.748 81.855,185.942 81.379,186.012 81.332 C 187.236 80.517,187.118 60.634,185.881 59.363 C 185.763 59.242,185.667 59.038,185.667 58.910 C 185.667 58.603,185.137 57.500,184.989 57.500 C 184.926 57.500,184.779 57.272,184.664 56.993 C 184.548 56.715,184.332 56.396,184.182 56.285 C 184.033 56.174,183.790 55.896,183.642 55.667 C 183.257 55.070,182.152 53.980,181.443 53.497 C 180.631 52.944,180.654 52.859,181.973 51.527 C 182.600 50.894,183.282 50.103,183.487 49.771 C 183.692 49.439,183.914 49.167,183.978 49.167 C 184.043 49.167,184.278 48.754,184.500 48.250 C 184.722 47.746,184.951 47.333,185.009 47.333 C 185.128 47.333,185.833 45.003,185.833 44.612 C 185.833 44.474,185.906 44.336,185.995 44.306 C 186.611 44.094,186.615 29.734,185.999 29.528 C 185.908 29.497,185.833 29.312,185.833 29.117 C 185.833 28.615,185.141 25.935,184.984 25.830 C 184.913 25.782,184.702 25.389,184.516 24.955 C 184.331 24.521,184.119 24.167,184.047 24.167 C 183.974 24.167,183.816 23.943,183.694 23.669 C 183.306 22.791,181.764 21.127,180.769 20.512 C 180.438 20.307,180.166 20.089,180.165 20.028 C 180.164 19.967,179.752 19.734,179.248 19.510 C 178.745 19.286,178.333 19.056,178.333 18.997 C 178.333 18.939,177.752 18.713,177.042 18.493 C 176.331 18.274,175.713 18.049,175.667 17.993 C 175.542 17.842,173.071 17.346,171.833 17.223 C 171.237 17.164,170.697 17.033,170.631 16.933 C 170.511 16.749,150.050 16.602,149.195 16.780 M166.667 30.977 C 166.667 31.056,167.023 31.166,167.458 31.221 C 169.788 31.518,171.318 32.811,171.667 34.778 C 171.964 36.455,171.818 42.051,171.455 42.849 C 171.130 43.568,170.188 44.667,169.898 44.667 C 169.784 44.667,169.579 44.779,169.442 44.915 C 168.711 45.647,162.239 46.049,161.593 45.403 C 161.360 45.169,161.335 44.351,161.373 38.278 L 161.417 31.417 161.792 31.252 C 161.998 31.162,162.167 31.030,162.167 30.960 C 162.167 30.891,163.179 30.833,164.417 30.833 C 165.654 30.833,166.667 30.898,166.667 30.977 M168.871 60.488 C 170.189 60.825,171.486 61.825,171.765 62.719 C 171.827 62.919,171.942 63.125,172.021 63.175 C 172.718 63.626,172.671 74.500,171.971 74.500 C 171.895 74.500,171.833 74.620,171.833 74.766 C 171.833 75.304,171.010 76.259,170.167 76.699 C 169.938 76.818,169.705 76.977,169.651 77.051 C 169.232 77.621,162.246 77.885,161.608 77.355 C 161.199 77.014,161.186 60.837,161.595 60.429 C 162.012 60.012,167.175 60.055,168.871 60.488 " stroke="none" fill="#fcfce4" fill-rule="evenodd"></path><path id="path1" d="M195.542 16.782 C 195.335 16.823,195.167 16.926,195.167 17.012 C 195.167 17.097,195.073 17.169,194.958 17.172 C 194.363 17.187,193.834 17.985,193.670 19.117 C 193.466 20.528,193.449 87.768,193.652 89.343 C 193.948 91.637,194.492 91.833,200.583 91.828 C 205.583 91.825,206.149 91.752,206.867 91.018 C 207.621 90.247,207.655 89.569,207.664 75.250 C 207.668 68.100,207.727 62.167,207.794 62.067 C 208.143 61.544,208.696 61.500,215.031 61.496 C 224.586 61.490,223.902 62.101,223.805 53.667 C 223.726 46.814,224.572 47.446,215.333 47.334 C 208.752 47.254,208.398 47.234,208.042 46.921 L 207.667 46.593 207.667 39.043 L 207.667 31.493 208.083 31.303 C 208.313 31.199,208.500 31.050,208.500 30.973 C 208.500 30.896,212.321 30.833,216.992 30.833 C 227.373 30.833,227.830 30.758,227.833 29.042 C 227.833 28.835,227.908 28.667,228.000 28.667 C 228.107 28.667,228.167 26.917,228.167 23.750 C 228.167 21.046,228.101 18.833,228.021 18.833 C 227.941 18.833,227.827 18.595,227.769 18.303 C 227.652 17.718,227.232 17.167,226.905 17.167 C 226.789 17.167,226.663 17.073,226.625 16.958 C 226.557 16.755,196.536 16.585,195.542 16.782 M233.019 16.782 C 232.800 16.826,232.538 16.929,232.436 17.010 C 231.326 17.895,231.317 17.907,231.218 18.875 C 231.164 19.402,231.056 19.833,230.977 19.833 C 230.897 19.833,230.833 35.149,230.833 54.250 C 230.833 77.083,230.889 88.667,231.000 88.667 C 231.092 88.667,231.167 88.974,231.167 89.350 C 231.167 90.264,231.597 91.118,232.231 91.466 C 233.029 91.903,260.971 91.903,261.769 91.466 C 262.403 91.118,262.833 90.264,262.833 89.350 C 262.833 88.974,262.908 88.667,263.000 88.667 C 263.106 88.667,263.167 87.250,263.167 84.750 C 263.167 82.596,263.102 80.833,263.023 80.833 C 262.944 80.833,262.836 80.402,262.782 79.875 C 262.701 79.091,262.598 78.848,262.217 78.538 C 261.960 78.329,261.639 78.066,261.504 77.954 C 261.321 77.802,259.271 77.729,253.488 77.667 C 247.240 77.600,245.663 77.539,245.442 77.355 C 245.188 77.144,245.167 74.911,245.167 48.480 C 245.167 32.600,245.103 19.833,245.023 19.833 C 244.944 19.833,244.836 19.402,244.782 18.875 C 244.701 18.091,244.598 17.848,244.217 17.538 C 243.960 17.329,243.639 17.066,243.504 16.954 C 243.258 16.749,233.934 16.596,233.019 16.782 M267.125 16.782 C 266.873 16.822,266.667 16.909,266.667 16.975 C 266.667 17.041,266.447 17.225,266.178 17.383 C 265.284 17.911,265.306 17.104,265.372 48.000 C 265.434 76.676,265.499 79.833,266.023 79.833 C 266.102 79.833,266.167 79.998,266.167 80.200 C 266.167 80.791,266.873 83.500,267.026 83.500 C 267.103 83.500,267.167 83.603,267.167 83.729 C 267.167 83.980,267.820 85.534,267.982 85.667 C 268.038 85.712,268.232 86.050,268.413 86.417 C 268.594 86.783,268.876 87.233,269.041 87.417 C 270.081 88.580,270.832 89.333,270.950 89.333 C 271.025 89.333,271.281 89.514,271.519 89.734 C 271.757 89.955,272.281 90.302,272.684 90.507 C 273.087 90.711,273.454 90.929,273.500 90.991 C 273.593 91.117,275.818 91.833,276.116 91.833 C 276.220 91.833,276.331 91.903,276.361 91.988 C 276.720 92.985,292.465 93.000,293.167 92.003 C 293.212 91.938,293.813 91.716,294.500 91.509 C 295.188 91.302,295.787 91.079,295.833 91.013 C 295.879 90.947,296.273 90.723,296.708 90.515 C 297.144 90.307,297.500 90.074,297.500 89.996 C 297.500 89.919,297.666 89.803,297.868 89.739 C 298.328 89.593,300.667 87.235,300.667 86.917 C 300.667 86.789,300.773 86.623,300.903 86.550 C 301.033 86.477,301.302 86.005,301.500 85.502 C 301.698 84.998,301.931 84.543,302.018 84.489 C 302.105 84.435,302.336 83.797,302.532 83.071 C 302.728 82.344,302.942 81.712,303.009 81.667 C 303.199 81.537,303.678 78.274,303.786 76.375 C 303.840 75.435,303.947 74.667,304.025 74.667 C 304.103 74.667,304.167 62.104,304.167 46.750 C 304.167 30.909,304.104 18.833,304.021 18.833 C 303.941 18.833,303.827 18.595,303.769 18.303 C 303.652 17.718,303.232 17.167,302.905 17.167 C 302.789 17.167,302.663 17.073,302.625 16.958 C 302.535 16.689,291.723 16.652,291.536 16.921 C 291.470 17.014,291.221 17.216,290.981 17.368 C 290.150 17.896,290.167 17.297,290.167 46.824 C 290.167 62.261,290.103 74.500,290.023 74.500 C 289.943 74.500,289.832 74.839,289.775 75.253 C 289.612 76.445,288.700 77.811,288.056 77.828 C 287.949 77.831,287.833 77.918,287.799 78.021 C 287.531 78.825,282.421 78.796,281.420 77.985 C 280.486 77.229,279.858 76.464,279.613 75.784 C 279.472 75.392,279.398 67.685,279.335 46.786 C 279.279 28.098,279.193 18.280,279.083 18.202 C 278.992 18.137,278.837 17.938,278.739 17.761 C 278.641 17.584,278.416 17.359,278.239 17.261 C 278.062 17.163,277.863 17.008,277.798 16.917 C 277.680 16.751,268.072 16.629,267.125 16.782 M312.125 16.781 C 311.873 16.822,311.667 16.909,311.667 16.975 C 311.667 17.041,311.447 17.225,311.178 17.383 C 310.337 17.880,310.290 18.484,310.379 27.583 C 310.454 35.281,310.606 37.903,310.993 38.167 C 311.060 38.212,311.279 38.794,311.479 39.458 C 311.679 40.123,311.916 40.667,312.005 40.667 C 312.094 40.667,312.167 40.750,312.167 40.851 C 312.167 41.125,312.897 42.667,313.026 42.667 C 313.087 42.667,313.308 43.023,313.517 43.458 C 313.725 43.894,314.032 44.348,314.198 44.468 C 314.364 44.588,314.500 44.780,314.500 44.895 C 314.500 45.010,314.669 45.284,314.875 45.504 C 315.227 45.880,315.499 46.278,315.769 46.811 C 315.832 46.936,316.027 47.198,316.202 47.394 C 317.112 48.413,317.500 48.928,317.500 49.119 C 317.500 49.235,317.650 49.424,317.833 49.539 C 318.017 49.653,318.167 49.807,318.167 49.880 C 318.167 50.040,318.770 50.891,319.292 51.468 C 319.498 51.696,319.667 51.986,319.667 52.113 C 319.667 52.240,319.781 52.388,319.921 52.442 C 321.095 52.892,320.978 55.104,319.708 56.477 C 319.502 56.700,319.333 56.981,319.333 57.102 C 319.333 57.223,319.183 57.402,319.000 57.500 C 318.817 57.598,318.665 57.770,318.663 57.881 C 318.662 57.992,318.407 58.373,318.098 58.727 C 317.789 59.082,317.434 59.569,317.310 59.811 C 317.185 60.052,316.952 60.348,316.792 60.468 C 316.631 60.588,316.500 60.790,316.500 60.917 C 316.500 61.044,316.365 61.246,316.201 61.366 C 316.036 61.485,315.730 61.865,315.520 62.208 C 315.311 62.552,315.089 62.833,315.027 62.833 C 314.965 62.833,314.813 63.064,314.688 63.346 C 314.563 63.628,314.276 64.058,314.049 64.302 C 313.823 64.547,313.536 64.991,313.411 65.290 C 313.286 65.589,313.105 65.833,313.009 65.833 C 312.912 65.833,312.833 65.909,312.833 66.002 C 312.833 66.221,312.137 67.725,311.985 67.833 C 311.845 67.933,311.167 69.959,311.167 70.278 C 311.167 70.400,311.099 70.500,311.017 70.500 C 310.431 70.500,310.071 89.265,310.632 90.593 C 311.108 91.720,311.285 91.750,317.500 91.750 C 325.355 91.750,324.546 92.781,324.662 82.619 C 324.723 77.320,324.806 74.951,324.934 74.869 C 325.035 74.803,325.214 74.337,325.331 73.833 C 325.539 72.936,325.777 72.333,325.989 72.167 C 326.047 72.121,326.279 71.690,326.503 71.208 C 326.728 70.727,326.963 70.333,327.024 70.333 C 327.086 70.333,327.309 69.977,327.519 69.542 C 327.729 69.106,328.036 68.605,328.201 68.427 C 328.365 68.249,328.500 68.016,328.500 67.909 C 328.500 67.563,329.632 66.500,330.000 66.500 C 330.368 66.500,331.500 67.563,331.500 67.909 C 331.500 68.016,331.635 68.249,331.799 68.427 C 331.964 68.605,332.271 69.106,332.481 69.542 C 332.691 69.977,332.914 70.333,332.976 70.333 C 333.037 70.333,333.272 70.727,333.497 71.208 C 333.721 71.690,333.953 72.121,334.011 72.167 C 334.223 72.333,334.461 72.936,334.669 73.833 C 334.786 74.337,334.965 74.803,335.066 74.869 C 335.194 74.951,335.277 77.320,335.338 82.619 C 335.454 92.781,334.645 91.750,342.500 91.750 C 348.715 91.750,348.892 91.720,349.368 90.593 C 349.929 89.265,349.569 70.500,348.983 70.500 C 348.901 70.500,348.833 70.400,348.833 70.278 C 348.833 69.959,348.155 67.933,348.015 67.833 C 347.863 67.725,347.167 66.221,347.167 66.002 C 347.167 65.909,347.088 65.833,346.991 65.833 C 346.895 65.833,346.714 65.589,346.589 65.290 C 346.464 64.991,346.177 64.547,345.951 64.302 C 345.724 64.058,345.437 63.628,345.312 63.346 C 345.187 63.064,345.035 62.833,344.973 62.833 C 344.911 62.833,344.689 62.552,344.480 62.208 C 344.270 61.865,343.964 61.485,343.799 61.366 C 343.635 61.246,343.500 61.044,343.500 60.917 C 343.500 60.790,343.369 60.588,343.208 60.468 C 343.048 60.348,342.815 60.052,342.690 59.811 C 342.566 59.569,342.211 59.082,341.902 58.727 C 341.593 58.373,341.338 57.992,341.337 57.881 C 341.335 57.770,341.183 57.598,341.000 57.500 C 340.817 57.402,340.667 57.223,340.667 57.102 C 340.667 56.981,340.498 56.700,340.292 56.477 C 339.022 55.104,338.905 52.892,340.079 52.442 C 340.219 52.388,340.333 52.240,340.333 52.113 C 340.333 51.986,340.502 51.696,340.708 51.468 C 341.230 50.891,341.833 50.040,341.833 49.880 C 341.833 49.807,341.983 49.653,342.167 49.539 C 342.350 49.424,342.500 49.235,342.500 49.119 C 342.500 48.928,342.888 48.413,343.798 47.394 C 343.973 47.198,344.168 46.936,344.231 46.811 C 344.501 46.278,344.773 45.880,345.125 45.504 C 345.331 45.284,345.500 45.010,345.500 44.895 C 345.500 44.780,345.636 44.588,345.802 44.468 C 345.968 44.348,346.275 43.894,346.483 43.458 C 346.692 43.023,346.913 42.667,346.974 42.667 C 347.103 42.667,347.833 41.125,347.833 40.851 C 347.833 40.750,347.906 40.667,347.995 40.667 C 348.084 40.667,348.321 40.123,348.521 39.458 C 348.721 38.794,348.940 38.212,349.007 38.167 C 349.394 37.903,349.546 35.281,349.621 27.583 C 349.705 18.984,349.635 17.840,349.001 17.500 C 348.831 17.410,348.561 17.204,348.400 17.043 C 347.885 16.527,337.067 16.602,336.506 17.125 C 336.285 17.331,336.041 17.500,335.964 17.500 C 335.506 17.500,335.423 18.626,335.338 25.986 C 335.270 31.831,335.203 33.572,335.042 33.625 C 334.927 33.663,334.833 33.830,334.833 33.996 C 334.833 34.438,334.174 36.500,334.033 36.500 C 333.966 36.500,333.726 36.893,333.498 37.374 C 333.270 37.855,332.952 38.380,332.792 38.541 C 332.631 38.702,332.500 38.932,332.500 39.052 C 332.500 39.172,332.368 39.416,332.207 39.594 C 332.045 39.771,331.729 40.269,331.503 40.700 C 331.277 41.131,330.922 41.575,330.713 41.686 C 330.504 41.798,330.333 41.952,330.333 42.028 C 330.333 42.104,330.183 42.167,330.000 42.167 C 329.817 42.167,329.667 42.104,329.667 42.028 C 329.667 41.952,329.496 41.798,329.287 41.686 C 329.078 41.575,328.723 41.131,328.497 40.700 C 328.271 40.269,327.955 39.771,327.793 39.594 C 327.632 39.416,327.500 39.172,327.500 39.052 C 327.500 38.932,327.369 38.702,327.208 38.541 C 327.048 38.380,326.730 37.855,326.502 37.374 C 326.274 36.893,326.034 36.500,325.967 36.500 C 325.826 36.500,325.167 34.438,325.167 33.996 C 325.167 33.830,325.073 33.663,324.958 33.625 C 324.797 33.572,324.730 31.831,324.662 25.986 C 324.577 18.626,324.494 17.500,324.036 17.500 C 323.959 17.500,323.715 17.331,323.494 17.125 C 323.105 16.763,313.940 16.485,312.125 16.781 " stroke="none" fill="#bcf444" fill-rule="evenodd"></path><path id="path2" d="" stroke="none" fill="#dcf8e8" fill-rule="evenodd"></path><path id="path3" d="" stroke="none" fill="#dcf8e8" fill-rule="evenodd"></path><path id="path4" d="" stroke="none" fill="#dcf8e8" fill-rule="evenodd"></path></g></svg>